<svg id="Layer_1" data-name="Layer 1" xmlns="http://www.w3.org/2000/svg" viewBox="0 0 1261.6 268.93"><defs><style>.cls-1{fill:#231f20;}.cls-2{fill:#0c5adb;}.cls-3{fill:#a6e0fd;}</style></defs><path class="cls-1" d="M326.29,173.38a73.1,73.1,0,0,1-20.61-2.88q-9.87-2.88-15.88-7.49l7-15.62a51.5,51.5,0,0,0,13.64,6.72,50.1,50.1,0,0,0,15.94,2.63,33.24,33.24,0,0,0,9.92-1.22,11.6,11.6,0,0,0,5.56-3.39,7.62,7.62,0,0,0,1.8-5,6.75,6.75,0,0,0-2.82-5.69,23.19,23.19,0,0,0-7.42-3.46q-4.62-1.33-10.18-2.56t-11.14-3a47.16,47.16,0,0,1-10.17-4.6,22.64,22.64,0,0,1-7.49-7.43q-2.88-4.6-2.88-11.78a24.92,24.92,0,0,1,4.16-14q4.15-6.34,12.54-10.12t21.06-3.77a70.58,70.58,0,0,1,16.64,2,48.16,48.16,0,0,1,14.47,5.95l-6.4,15.75a54.56,54.56,0,0,0-12.55-5.31,45.83,45.83,0,0,0-12.29-1.73,29.05,29.05,0,0,0-9.86,1.41,11.64,11.64,0,0,0-5.5,3.64,8.49,8.49,0,0,0-1.66,5.19,6.63,6.63,0,0,0,2.81,5.57,22.12,22.12,0,0,0,7.43,3.39q4.6,1.27,10.17,2.56c3.72.85,7.43,1.84,11.14,2.94a43.41,43.41,0,0,1,10.18,4.48,22.73,22.73,0,0,1,7.49,7.43,21.63,21.63,0,0,1,2.88,11.65,24.17,24.17,0,0,1-4.23,13.82q-4.21,6.29-12.61,10.12T326.29,173.38Z"/><path class="cls-1" d="M419.63,173.38A54.4,54.4,0,0,1,400,169.92a46.58,46.58,0,0,1-15.62-9.73,44.58,44.58,0,0,1-10.24-14.72,48.5,48.5,0,0,1,0-36.87,44,44,0,0,1,10.31-14.72,47.45,47.45,0,0,1,15.62-9.73,56.78,56.78,0,0,1,39,0,46.82,46.82,0,0,1,15.48,9.73,46.77,46.77,0,0,1,10.31,51.65,44.33,44.33,0,0,1-10.31,14.73A47.14,47.14,0,0,1,439,169.92,53,53,0,0,1,419.63,173.38Zm-.13-17.67a29.21,29.21,0,0,0,11.08-2.05,26.31,26.31,0,0,0,8.89-5.89,26.89,26.89,0,0,0,6-9.08,33.22,33.22,0,0,0,0-23.3,27.53,27.53,0,0,0-5.89-9.09,25.87,25.87,0,0,0-8.9-5.89,29.83,29.83,0,0,0-11.14-2,29.32,29.32,0,0,0-11.07,2,26.67,26.67,0,0,0-14.85,15,33,33,0,0,0,0,23.23,27.23,27.23,0,0,0,5.89,9.15,25.5,25.5,0,0,0,8.9,5.89A29.58,29.58,0,0,0,419.5,155.71Z"/><path class="cls-1" d="M502.75,171.84H482V82.23h67.72V98.87h-47Zm-1.54-49.28h43V139.2h-43Z"/><path class="cls-1" d="M583.41,171.84V99.13H554.73V82.23h78.09v16.9H604.15v72.71Z"/><path class="cls-1" d="M672.82,173.38a73.08,73.08,0,0,1-20.6-2.88q-9.87-2.88-15.88-7.49l7-15.62A51.5,51.5,0,0,0,657,154.11,50,50,0,0,0,673,156.74a33.14,33.14,0,0,0,9.92-1.22,11.58,11.58,0,0,0,5.57-3.39,7.61,7.61,0,0,0,1.79-5,6.77,6.77,0,0,0-2.81-5.69A23.15,23.15,0,0,0,680,138q-4.61-1.33-10.17-2.56t-11.14-3a47.24,47.24,0,0,1-10.18-4.6,22.73,22.73,0,0,1-7.49-7.43q-2.88-4.6-2.88-11.78a25,25,0,0,1,4.16-14q4.17-6.34,12.55-10.12T675.9,80.7a70.58,70.58,0,0,1,16.64,2A48,48,0,0,1,707,88.63l-6.4,15.75a54.31,54.31,0,0,0-12.54-5.31,45.83,45.83,0,0,0-12.29-1.73,29.05,29.05,0,0,0-9.86,1.41,11.64,11.64,0,0,0-5.5,3.64,8.5,8.5,0,0,0-1.67,5.19,6.64,6.64,0,0,0,2.82,5.57,22.15,22.15,0,0,0,7.42,3.39q4.62,1.27,10.18,2.56c3.71.85,7.43,1.84,11.14,2.94a43.6,43.6,0,0,1,10.18,4.48A22.7,22.7,0,0,1,708,134a21.63,21.63,0,0,1,2.88,11.65,24.16,24.16,0,0,1-4.22,13.82q-4.23,6.29-12.61,10.12T672.82,173.38Z"/><path class="cls-1" d="M746.19,171.84V135.23l4.73,12.54L711.5,82.23h22l30.21,50.31H751.05l30.34-50.31h20.35l-39.42,65.54,4.61-12.54v36.61Z"/><path class="cls-1" d="M808.89,171.84V82.23H826l52.87,64.52h-8.32V82.23h20.48v89.61H874l-53-64.52h8.32v64.52Z"/><path class="cls-1" d="M953.28,173.38A53.64,53.64,0,0,1,934,170a45.37,45.37,0,0,1-15.43-9.67,44.84,44.84,0,0,1-10.17-14.72,49,49,0,0,1,0-37.12,44.33,44.33,0,0,1,10.24-14.73,46,46,0,0,1,15.42-9.66,53.51,53.51,0,0,1,19.33-3.39,52.9,52.9,0,0,1,21.06,4,41.14,41.14,0,0,1,15.81,11.84L977,108.86A31.27,31.27,0,0,0,966.73,101a28.78,28.78,0,0,0-12.29-2.63,31.47,31.47,0,0,0-11.52,2,26.09,26.09,0,0,0-9.09,5.89,26.94,26.94,0,0,0-6,9.09,33.22,33.22,0,0,0,0,23.3,26.89,26.89,0,0,0,6,9.08,25.81,25.81,0,0,0,9.09,5.89,31.27,31.27,0,0,0,11.52,2.05,28.77,28.77,0,0,0,12.29-2.62,30.66,30.66,0,0,0,10.24-8l13.31,12.29a41.69,41.69,0,0,1-15.81,11.9A52.56,52.56,0,0,1,953.28,173.38Z"/><path class="cls-1" d="M1040.46,171.84V82.23h20.74v89.61Z"/><path class="cls-1" d="M1080.2,171.84V82.23h17.16l52.87,64.52h-8.32V82.23h20.48v89.61h-17l-53-64.52h8.33v64.52Z"/><path class="cls-1" d="M1224.6,173.38a53.73,53.73,0,0,1-19.27-3.39,44.8,44.8,0,0,1-25.6-24.39,49,49,0,0,1,0-37.12A44.48,44.48,0,0,1,1190,93.75a46.13,46.13,0,0,1,15.43-9.66,53.51,53.51,0,0,1,19.33-3.39,53,53,0,0,1,21.06,4,41.14,41.14,0,0,1,15.81,11.84l-13.32,12.29A31.06,31.06,0,0,0,1238,101a28.71,28.71,0,0,0-12.29-2.63,31.55,31.55,0,0,0-11.52,2,26.18,26.18,0,0,0-9.09,5.89,26.91,26.91,0,0,0-6,9.09,33.22,33.22,0,0,0,0,23.3,26.87,26.87,0,0,0,6,9.08,25.9,25.9,0,0,0,9.09,5.89,31.34,31.34,0,0,0,11.52,2.05,28.71,28.71,0,0,0,12.29-2.62,30.47,30.47,0,0,0,10.24-8l13.32,12.29a41.69,41.69,0,0,1-15.81,11.9A52.63,52.63,0,0,1,1224.6,173.38Z"/><path class="cls-2" d="M227.24,58.31l-95.34-55a24.34,24.34,0,0,0-24.37,0l-95.34,55A24.37,24.37,0,0,0,0,79.42V189.51a24.39,24.39,0,0,0,12.19,21.11l95.34,55a24.34,24.34,0,0,0,24.37,0l95.34-55a24.39,24.39,0,0,0,12.19-21.11V79.42A24.37,24.37,0,0,0,227.24,58.31Z"/><path class="cls-3" d="M203.39,193.55,135.88,231.8c-10.58,5.61-23.16,5-32.34-1.44L59.61,203.14l-2-1.21a5.65,5.65,0,0,1,2.74-9.64l2.06,0,16.9-.34c9.7-.7,14.68-2.4,20.51,1.72l9.66,6.84c.68.31,1.3.57,1.89.79a25.66,25.66,0,1,0,25.37-44.18,26.55,26.55,0,0,0-2.65-1.77,5.47,5.47,0,0,1-2.9-4.92l1-21.14c.22-4.92,7.16-7.61,11.68-4.53l62,45.18C214.36,175.66,213,188.44,203.39,193.55Z"/><path class="cls-3" d="M36,75.38l67.51-38.25c10.58-5.61,23.16-5.06,32.34,1.44l43.93,27.21,2,1.21A5.65,5.65,0,0,1,179,76.63l-2.06.05-16.9.34c-9.7.7-14.68,2.4-20.51-1.72l-9.66-6.84c-.68-.31-1.3-.57-1.89-.8a25.66,25.66,0,1,0-25.37,44.19,24.86,24.86,0,0,0,2.65,1.76,5.5,5.5,0,0,1,2.9,4.93l-1,21.14c-.22,4.92-7.16,7.6-11.68,4.53L33.53,99C25.07,93.27,26.42,80.49,36,75.38Z"/></svg>