<svg id="Layer_1" data-name="Layer 1" xmlns="http://www.w3.org/2000/svg" viewBox="0 0 1270.69 262.36"><defs><style>.cls-1{fill:#231f20;}.cls-2{fill:#0c5adb;}</style></defs><path class="cls-1" d="M335.38,177.78a73.1,73.1,0,0,1-20.61-2.88,48.25,48.25,0,0,1-15.87-7.49l7-15.62a51.14,51.14,0,0,0,13.63,6.73,50.09,50.09,0,0,0,15.94,2.62,32.91,32.91,0,0,0,9.92-1.22,11.68,11.68,0,0,0,5.57-3.39,7.64,7.64,0,0,0,1.79-5,6.76,6.76,0,0,0-2.82-5.7,23,23,0,0,0-7.42-3.45q-4.6-1.35-10.18-2.57c-3.71-.8-7.42-1.81-11.14-3a47.18,47.18,0,0,1-10.17-4.61,22.64,22.64,0,0,1-7.49-7.43q-2.88-4.61-2.88-11.77a25,25,0,0,1,4.16-14q4.15-6.33,12.54-10.11t21.06-3.78a70.58,70.58,0,0,1,16.64,2,48.07,48.07,0,0,1,14.47,6l-6.4,15.74a54.38,54.38,0,0,0-12.55-5.31,46.24,46.24,0,0,0-12.29-1.73,29,29,0,0,0-9.85,1.41A11.68,11.68,0,0,0,323,106.8,8.44,8.44,0,0,0,321.3,112a6.64,6.64,0,0,0,2.81,5.57,22.21,22.21,0,0,0,7.43,3.39q4.6,1.29,10.18,2.56t11.13,3A42.83,42.83,0,0,1,363,130.93a22.7,22.7,0,0,1,7.49,7.42A21.66,21.66,0,0,1,373.4,150a24.2,24.2,0,0,1-4.23,13.83q-4.21,6.27-12.6,10.11T335.38,177.78Z"/><path class="cls-1" d="M428.72,177.78a54.4,54.4,0,0,1-19.65-3.46,46.41,46.41,0,0,1-15.61-9.72,44.23,44.23,0,0,1-10.24-14.73,48.35,48.35,0,0,1,0-36.86,43.78,43.78,0,0,1,10.3-14.72,47.29,47.29,0,0,1,15.62-9.73,56.62,56.62,0,0,1,39,0,46.81,46.81,0,0,1,15.49,9.73,46.79,46.79,0,0,1,10.3,51.65,44.37,44.37,0,0,1-10.3,14.72,47.29,47.29,0,0,1-15.49,9.66A53,53,0,0,1,428.72,177.78Zm-.12-17.67a29.31,29.31,0,0,0,11.07-2,26.67,26.67,0,0,0,14.85-15,33.22,33.22,0,0,0,0-23.3,27.37,27.37,0,0,0-5.89-9.09,25.78,25.78,0,0,0-8.9-5.89,29.77,29.77,0,0,0-11.13-2,29.33,29.33,0,0,0-11.08,2,26.61,26.61,0,0,0-8.89,5.89,26.94,26.94,0,0,0-6,9.09,33.05,33.05,0,0,0,0,23.24,27.23,27.23,0,0,0,5.89,9.15,25.78,25.78,0,0,0,8.9,5.89A29.79,29.79,0,0,0,428.6,160.11Z"/><path class="cls-1" d="M511.84,176.24H491.1V86.64h67.72v16.64h-47ZM510.31,127h43V143.6h-43Z"/><path class="cls-1" d="M592.5,176.24V103.53H563.83V86.64h78.08v16.89H613.24v72.71Z"/><path class="cls-1" d="M681.92,177.78a73.1,73.1,0,0,1-20.61-2.88q-9.87-2.88-15.88-7.49l7-15.62a51.21,51.21,0,0,0,13.64,6.73,50.09,50.09,0,0,0,15.94,2.62,32.91,32.91,0,0,0,9.92-1.22,11.6,11.6,0,0,0,5.56-3.39,7.6,7.6,0,0,0,1.8-5,6.76,6.76,0,0,0-2.82-5.7,23,23,0,0,0-7.42-3.45q-4.62-1.35-10.18-2.57c-3.71-.8-7.43-1.81-11.14-3a47.49,47.49,0,0,1-10.18-4.61,22.61,22.61,0,0,1-7.48-7.43q-2.88-4.61-2.88-11.77a25,25,0,0,1,4.16-14q4.15-6.33,12.54-10.11T685,85.1a70.58,70.58,0,0,1,16.64,2,48.17,48.17,0,0,1,14.47,6l-6.4,15.74a54.56,54.56,0,0,0-12.55-5.31,46.24,46.24,0,0,0-12.29-1.73,29.05,29.05,0,0,0-9.86,1.41,11.65,11.65,0,0,0-5.5,3.65,8.44,8.44,0,0,0-1.66,5.18,6.62,6.62,0,0,0,2.81,5.57,22.12,22.12,0,0,0,7.43,3.39q4.6,1.29,10.17,2.56t11.14,3a43,43,0,0,1,10.18,4.48,22.7,22.7,0,0,1,7.49,7.42A21.66,21.66,0,0,1,719.94,150a24.2,24.2,0,0,1-4.23,13.83q-4.22,6.27-12.61,10.11T681.92,177.78Z"/><path class="cls-1" d="M755.28,176.24V139.63L760,152.18,720.59,86.64h22L772.82,137H760.14l30.34-50.31h20.36l-39.43,65.54L776,139.63v36.61Z"/><path class="cls-1" d="M818,176.24V86.64h17.15L888,151.15h-8.32V86.64h20.48v89.6h-17l-53-64.51h8.32v64.51Z"/><path class="cls-1" d="M962.38,177.78a53.65,53.65,0,0,1-19.27-3.39A44.72,44.72,0,0,1,917.51,150a49,49,0,0,1,0-37.12,44.29,44.29,0,0,1,10.24-14.72,46.11,46.11,0,0,1,15.42-9.67A53.55,53.55,0,0,1,962.5,85.1a52.9,52.9,0,0,1,21.06,4A41.14,41.14,0,0,1,999.37,101l-13.31,12.29a31.16,31.16,0,0,0-10.24-7.87,28.77,28.77,0,0,0-12.29-2.62,31.55,31.55,0,0,0-11.52,2,26.18,26.18,0,0,0-9.09,5.89,26.76,26.76,0,0,0-5.95,9.09,33.07,33.07,0,0,0,0,23.3,26.76,26.76,0,0,0,5.95,9.09,26.18,26.18,0,0,0,9.09,5.89,31.55,31.55,0,0,0,11.52,2,28.77,28.77,0,0,0,12.29-2.62,30.56,30.56,0,0,0,10.24-8l13.31,12.29a41.59,41.59,0,0,1-15.81,11.9A52.54,52.54,0,0,1,962.38,177.78Z"/><path class="cls-1" d="M1049.55,176.24V86.64h20.74v89.6Z"/><path class="cls-1" d="M1089.3,176.24V86.64h17.15l52.87,64.51H1151V86.64h20.48v89.6h-17l-53-64.51h8.32v64.51Z"/><path class="cls-1" d="M1233.69,177.78a53.64,53.64,0,0,1-19.26-3.39A44.78,44.78,0,0,1,1188.82,150a49.14,49.14,0,0,1,0-37.12,44.46,44.46,0,0,1,10.25-14.72,46,46,0,0,1,15.42-9.67,53.51,53.51,0,0,1,19.33-3.39,52.9,52.9,0,0,1,21.06,4A41.14,41.14,0,0,1,1270.69,101l-13.31,12.29a31.2,31.2,0,0,0-10.25-7.87,28.69,28.69,0,0,0-12.28-2.62,31.56,31.56,0,0,0-11.53,2,26.14,26.14,0,0,0-9.08,5.89,26.94,26.94,0,0,0-6,9.09,33.22,33.22,0,0,0,0,23.3,26.94,26.94,0,0,0,6,9.09,26.14,26.14,0,0,0,9.08,5.89,31.56,31.56,0,0,0,11.53,2,28.69,28.69,0,0,0,12.28-2.62,30.6,30.6,0,0,0,10.25-8l13.31,12.29a41.59,41.59,0,0,1-15.81,11.9A52.59,52.59,0,0,1,1233.69,177.78Z"/><path class="cls-2" d="M216.62,48.89,142.52,6.11a45.6,45.6,0,0,0-45.61,0L22.81,48.89A45.61,45.61,0,0,0,0,88.4V174a45.58,45.58,0,0,0,22.81,39.5l74.1,42.79a45.65,45.65,0,0,0,45.61,0l74.1-42.79A45.58,45.58,0,0,0,239.43,174V88.4A45.61,45.61,0,0,0,216.62,48.89ZM36,72.1l67.51-38.26c10.58-5.61,23.16-5.05,32.34,1.45L179.82,62.5l2,1.21A5.65,5.65,0,0,1,179,73.35l-2.06,0-16.9.34c-9.7.7-14.68,2.4-20.51-1.72l-9.66-6.84c-.68-.31-1.3-.57-1.89-.79a25.66,25.66,0,1,0-25.37,44.19,28.33,28.33,0,0,0,2.65,1.76,5.48,5.48,0,0,1,2.9,4.92l-1,21.14c-.22,4.92-7.16,7.61-11.68,4.54l-62-45.19C25.07,90,26.42,77.2,36,72.1ZM203.39,190.26l-67.51,38.25c-10.58,5.62-23.16,5.06-32.34-1.44L59.61,199.86l-2-1.21A5.65,5.65,0,0,1,60.39,189l2.06,0,16.9-.33c9.7-.71,14.68-2.41,20.51,1.71l9.66,6.84c.68.31,1.3.57,1.89.8a25.66,25.66,0,1,0,25.37-44.19,24.86,24.86,0,0,0-2.65-1.76,5.49,5.49,0,0,1-2.9-4.93l1-21.14c.22-4.91,7.16-7.6,11.68-4.53l62,45.19C214.36,172.37,213,185.15,203.39,190.26Z"/></svg>