<?xml version="1.0" encoding="utf-8"?>
<!-- Generator: Adobe Illustrator 24.1.1, SVG Export Plug-In . SVG Version: 6.00 Build 0)  -->
<svg version="1.1" id="Layer_1" xmlns="http://www.w3.org/2000/svg" xmlns:xlink="http://www.w3.org/1999/xlink" x="0px" y="0px"
	 viewBox="0 0 609.3 700" style="enable-background:new 0 0 609.3 700;" xml:space="preserve">
<style type="text/css">
	.st0{fill:#0C5ADB;}
	.st1{fill:#A6E0FD;}
</style>
<path class="st0" d="M603.5,170.8L310.5,1.6c-3.6-2.1-8-2.1-11.6,0L5.8,170.8c-3.6,2.1-5.8,5.9-5.8,10v338.4c0,4.1,2.2,8,5.8,10
	l293.1,169.2c3.6,2.1,8,2.1,11.6,0l293.1-169.2c3.6-2.1,5.8-5.9,5.8-10V180.8C609.3,176.7,607.1,172.8,603.5,170.8z"/>
<path class="st1" d="M517.6,500.4l-171.8,97.3c-26.9,14.3-58.9,12.9-82.3-3.7l-111.8-69.2l-5-3.1c-5.8-5.5-6-14.6-0.6-20.3
	c2-2.1,4.7-3.6,7.5-4.2l5.2-0.1l43-0.9c24.7-1.8,37.4-6.1,52.2,4.4l24.6,17.4c1.7,0.8,3.3,1.5,4.8,2c28.9,21.6,69.8,15.7,91.4-13.2
	c21.6-28.9,15.7-69.8-13.2-91.4c-4.2-3.2-8.8-5.8-13.7-7.8c-2.1-1.6-4.4-3.1-6.7-4.5c-4.8-2.9-7.6-7.5-7.4-12.5l2.5-53.8
	c0.6-12.5,18.2-19.3,29.7-11.5l157.8,115C545.5,454.8,542.1,487.4,517.6,500.4z"/>
<path class="st1" d="M91.7,199.6l171.8-97.3c26.9-14.3,58.9-12.9,82.3,3.7l111.8,69.2l5,3.1c5.8,5.5,6,14.6,0.6,20.3
	c-2,2.1-4.7,3.6-7.5,4.2l-5.2,0.1l-43,0.9c-24.7,1.8-37.4,6.1-52.2-4.4L330.6,182c-1.7-0.8-3.3-1.5-4.8-2
	c-28.9-21.6-69.8-15.7-91.4,13.2s-15.7,69.8,13.2,91.4c4.2,3.2,8.8,5.8,13.7,7.8c2.1,1.6,4.4,3.1,6.7,4.5c4.8,2.9,7.6,7.5,7.4,12.5
	l-2.5,53.8c-0.6,12.5-18.2,19.4-29.7,11.5l-157.8-115C63.8,245.2,67.2,212.6,91.7,199.6z"/>
</svg>
