<svg id="Layer_1" data-name="Layer 1" xmlns="http://www.w3.org/2000/svg" viewBox="0 0 1280 1470.47"><defs><style>.cls-1{fill:#0c5adb;}.cls-2{fill:#fff;}</style></defs><path class="cls-1" d="M1267.81,358.7,652.19,3.27a24.36,24.36,0,0,0-24.38,0L12.19,358.7A24.37,24.37,0,0,0,0,379.81v710.86a24.39,24.39,0,0,0,12.19,21.11l615.62,355.43a24.4,24.4,0,0,0,24.38,0l615.62-355.43a24.39,24.39,0,0,0,12.19-21.11V379.81A24.37,24.37,0,0,0,1267.81,358.7Z"/><path class="cls-2" d="M1087.34,1051.1,726.41,1255.59c-56.57,30-123.81,27-172.9-7.71L318.67,1102.41l-10.48-6.48a30.21,30.21,0,0,1,14.67-51.53l11-.23,90.37-1.81c51.83-3.77,78.48-12.86,109.64,9.18l51.65,36.55c3.59,1.66,6.93,3.06,10.1,4.26A137.19,137.19,0,1,0,731.23,856.13a136.4,136.4,0,0,0-14.15-9.43c-10.16-6-16-15.86-15.5-26.33l5.26-113c1.21-26.28,38.29-40.64,62.45-24.22l331.45,241.56C1146,955.45,1138.75,1023.79,1087.34,1051.1Z"/><path class="cls-2" d="M192.66,419.38l360.93-204.5c56.57-30,123.81-27,172.9,7.72L961.33,368.07l10.48,6.47a30.21,30.21,0,0,1-14.67,51.53l-11,.24-90.37,1.81c-51.83,3.76-78.48,12.85-109.64-9.18l-51.65-36.56c-3.59-1.66-6.93-3.05-10.1-4.26A137.19,137.19,0,1,0,548.77,614.34a136.47,136.47,0,0,0,14.15,9.44c10.16,6,16,15.86,15.5,26.33l-5.26,113c-1.21,26.29-38.29,40.65-62.45,24.22L179.26,545.78C134,515,141.25,446.68,192.66,419.38Z"/></svg>