<?xml version="1.0" encoding="UTF-8"?>
<svg id="Layer_1" data-name="Layer 1" xmlns="http://www.w3.org/2000/svg" viewBox="0 0 109.1 107.08">
  <defs>
    <style>
      .cls-1 {
        fill: #ffd506;
      }
    </style>
  </defs>
  <circle class="cls-1" cx="59.17" cy="57.15" r="49.93"/>
  <path d="M4.71,49.8c11.64-.51,23.21,.02,32.22-9.06,5.39-5.43,8.61-11.81,9.2-19.41,.18-2.34,1.11-2.91,3.24-2.86,2.56,.05,2.29,1.71,2.23,3.34-.64,15.8-15.38,31.34-31.31,32.5-6.03,.44-12.14-.12-18.21-.27-2.56-.06-2.05-2.05-2.01-3.57,.36-11.84,4.37-22.35,11.93-31.42C26.6,1.54,50.13-4.58,71.05,3.54c21.35,8.29,35.19,29.24,34.24,51.83-1.44,34.51-39.32,59.49-70.53,46.34C17.64,94.5,5.78,82.4,1.45,63.83c-.27-1.16-.39-2.35-.6-3.68,13.16-1.4,25.72-2.11,36.71,6.51,1.12,.88,3,1.08,4.53,1.09,13.43,.09,26.85,.06,40.28,.07,1.34,0,2.69,0,4.3,0v5.18c-1.35,.08-2.56,.21-3.78,.21-14.3,0-28.6,.03-42.89-.12-1.69-.02-3.65-.66-5-1.66-5.89-4.36-12.34-6.76-19.72-6.72-3.04,.02-6.08-.33-9.14-.51,.59,17.83,26.87,36.63,49.09,35.42,26.3-1.44,46.37-24.33,44.58-50.87C98.06,22.7,73.5,1.82,47.72,4.3,21.01,6.87,3.89,30.92,4.71,49.8Z"/>
  <path d="M48.76,45.82c-.75-4.93-.69-5.02,3.67-5.03,10.17-.02,20.34-.03,30.5-.02,4.43,0,4.46,.05,3.68,5.06H48.76Z"/>
  <path d="M48.79,58.78c9.1,0,18,0,26.9,0,2.35,0,4.71,0,7.06,0,4.53,0,4.76,.3,3.67,5.38-5.31,0-10.73,0-16.15,0-5.82,0-11.65,.02-17.47,.02-4.69,0-4.77-.11-4.01-5.4Z"/>
  <path d="M48.6,54.88v-4.88h38.09c.1,1.52,.19,3.04,.31,4.88H48.6Z"/>
</svg>