<?xml version="1.0" encoding="UTF-8"?>
<svg id="Layer_1" data-name="Layer 1" xmlns="http://www.w3.org/2000/svg" viewBox="0 0 476.39 113.68">
  <defs>
    <style>
      .cls-1 {
        fill: #ffd506;
      }
    </style>
  </defs>
  <g>
    <path d="M142.51,90.98h-14.68V11.95h57.7v12.31h-43.02V90.98Zm-1.24-42.68h39.41v12.42h-39.41v-12.42Z"/>
    <path d="M223.81,91.77c-6.17,0-11.67-1.33-16.49-4.01-4.82-2.67-8.62-6.34-11.4-11.01-2.79-4.67-4.18-9.97-4.18-15.92s1.39-11.35,4.18-15.98c2.78-4.63,6.59-8.26,11.4-10.9,4.82-2.63,10.31-3.95,16.49-3.95s11.8,1.32,16.65,3.95c4.86,2.64,8.66,6.25,11.4,10.84,2.75,4.59,4.12,9.94,4.12,16.03s-1.37,11.25-4.12,15.92c-2.75,4.67-6.55,8.34-11.4,11.01-4.85,2.67-10.41,4.01-16.65,4.01Zm0-12.08c3.46,0,6.55-.75,9.26-2.26,2.71-1.5,4.84-3.69,6.38-6.55,1.54-2.86,2.31-6.21,2.31-10.05s-.77-7.28-2.31-10.11c-1.54-2.82-3.67-4.99-6.38-6.49-2.71-1.5-5.76-2.26-9.15-2.26s-6.53,.75-9.2,2.26c-2.67,1.51-4.8,3.67-6.38,6.49-1.58,2.82-2.37,6.19-2.37,10.11s.79,7.19,2.37,10.05c1.58,2.86,3.71,5.04,6.38,6.55,2.67,1.51,5.7,2.26,9.09,2.26Z"/>
    <path d="M296.64,91.77c-6.17,0-11.67-1.33-16.49-4.01-4.82-2.67-8.62-6.34-11.4-11.01-2.79-4.67-4.18-9.97-4.18-15.92s1.39-11.35,4.18-15.98c2.78-4.63,6.59-8.26,11.4-10.9,4.82-2.63,10.31-3.95,16.49-3.95s11.8,1.32,16.65,3.95c4.86,2.64,8.66,6.25,11.4,10.84,2.75,4.59,4.12,9.94,4.12,16.03s-1.37,11.25-4.12,15.92c-2.75,4.67-6.55,8.34-11.4,11.01-4.85,2.67-10.41,4.01-16.65,4.01Zm0-12.08c3.46,0,6.55-.75,9.26-2.26,2.71-1.5,4.84-3.69,6.38-6.55,1.54-2.86,2.31-6.21,2.31-10.05s-.77-7.28-2.31-10.11c-1.54-2.82-3.67-4.99-6.38-6.49-2.71-1.5-5.76-2.26-9.15-2.26s-6.53,.75-9.2,2.26c-2.67,1.51-4.8,3.67-6.38,6.49-1.58,2.82-2.37,6.19-2.37,10.11s.79,7.19,2.37,10.05c1.58,2.86,3.71,5.04,6.38,6.55,2.67,1.51,5.7,2.26,9.09,2.26Z"/>
    <path d="M367.88,91.77c-5.8,0-11.01-1.3-15.64-3.9-4.63-2.6-8.26-6.19-10.9-10.78-2.64-4.59-3.95-10.01-3.95-16.26s1.32-11.67,3.95-16.26c2.63-4.59,6.27-8.17,10.9-10.73,4.63-2.56,9.84-3.84,15.64-3.84,5.04,0,9.56,1.11,13.55,3.33,3.99,2.22,7.15,5.59,9.48,10.11,2.33,4.52,3.5,10.31,3.5,17.39s-1.13,12.78-3.39,17.33c-2.26,4.56-5.38,7.96-9.37,10.22-3.99,2.26-8.58,3.39-13.78,3.39Zm1.69-12.08c3.39,0,6.42-.75,9.09-2.26,2.67-1.5,4.82-3.69,6.44-6.55,1.62-2.86,2.43-6.21,2.43-10.05s-.81-7.28-2.43-10.11c-1.62-2.82-3.77-4.99-6.44-6.49-2.67-1.5-5.7-2.26-9.09-2.26s-6.42,.75-9.09,2.26c-2.67,1.51-4.82,3.67-6.44,6.49-1.62,2.82-2.43,6.19-2.43,10.11s.81,7.19,2.43,10.05c1.62,2.86,3.76,5.04,6.44,6.55,2.67,1.51,5.7,2.26,9.09,2.26Zm18.29,11.29v-14.23l.56-16.03-1.13-16.03V7.2h14V90.98h-13.44Z"/>
    <path d="M424.9,113.68c-2.94,0-5.87-.49-8.81-1.47-2.94-.98-5.38-2.33-7.34-4.06l5.65-10.39c1.43,1.28,3.05,2.29,4.86,3.05,1.81,.75,3.65,1.13,5.53,1.13,2.56,0,4.63-.64,6.21-1.92,1.58-1.28,3.05-3.43,4.4-6.44l3.5-7.9,1.13-1.69,22.81-53.29h13.55l-28.23,65.15c-1.88,4.52-3.97,8.09-6.27,10.73-2.3,2.63-4.85,4.48-7.68,5.53-2.82,1.05-5.93,1.58-9.31,1.58Zm12.42-20.55l-27.21-62.44h14.68l22.13,52.05-9.6,10.39Z"/>
  </g>
  <g>
    <circle class="cls-1" cx="59.17" cy="57.15" r="49.93"/>
    <path d="M4.71,49.8c11.64-.51,23.21,.02,32.22-9.06,5.39-5.43,8.61-11.81,9.2-19.41,.18-2.34,1.11-2.91,3.24-2.86,2.56,.05,2.29,1.71,2.23,3.34-.64,15.8-15.38,31.34-31.31,32.5-6.03,.44-12.14-.12-18.21-.27-2.56-.06-2.05-2.05-2.01-3.57,.36-11.84,4.37-22.35,11.93-31.42C26.6,1.54,50.13-4.58,71.05,3.54c21.35,8.29,35.19,29.24,34.24,51.83-1.44,34.51-39.32,59.49-70.53,46.34C17.64,94.5,5.78,82.4,1.45,63.83c-.27-1.16-.39-2.35-.6-3.68,13.16-1.4,25.72-2.11,36.71,6.51,1.12,.88,3,1.08,4.53,1.09,13.43,.09,26.85,.06,40.28,.07,1.34,0,2.69,0,4.3,0v5.18c-1.35,.08-2.56,.21-3.78,.21-14.3,0-28.6,.03-42.89-.12-1.69-.02-3.65-.66-5-1.66-5.89-4.36-12.34-6.76-19.72-6.72-3.04,.02-6.08-.33-9.14-.51,.59,17.83,26.87,36.63,49.09,35.42,26.3-1.44,46.37-24.33,44.58-50.87C98.06,22.7,73.5,1.82,47.72,4.3,21.01,6.87,3.89,30.92,4.71,49.8Z"/>
    <path d="M48.76,45.82c-.75-4.93-.69-5.02,3.67-5.03,10.17-.02,20.34-.03,30.5-.02,4.43,0,4.46,.05,3.68,5.06H48.76Z"/>
    <path d="M48.79,58.78c9.1,0,18,0,26.9,0,2.35,0,4.71,0,7.06,0,4.53,0,4.76,.3,3.67,5.38-5.31,0-10.73,0-16.15,0-5.82,0-11.65,.02-17.47,.02-4.69,0-4.77-.11-4.01-5.4Z"/>
    <path d="M48.6,54.88v-4.88h38.09c.1,1.52,.19,3.04,.31,4.88H48.6Z"/>
  </g>
</svg>