<svg id="Layer_1" data-name="Layer 1" xmlns="http://www.w3.org/2000/svg" viewBox="0 0 384 384"><defs><style>.cls-1{fill:#777bb2;}.cls-2{fill:#797db4;}</style></defs><title>Artboard 2</title><path class="cls-1" d="M192,95.34C86,95.34,0,138.62,0,192s86,96.66,192,96.66S384,245.38,384,192,298,95.34,192,95.34ZM126,218.67c-7.59,3.11-15.79,3.05-23.87,3.19-4.94.1-9.9.21-14.84-.05-2.75-.15-3.87.67-4.32,3.41-1.2,7.18-2.73,14.3-4,21.48-.39,2.24-1.07,3.35-3.69,3.24-5.59-.24-11.21-.16-16.81,0-2.27,0-3.22-.22-2.68-3q9.8-49.75,19.35-99.56c.45-2.36,1.42-3.13,3.86-3.09,7.94.17,15.89.07,25.34.07,7.85.31,17.27-.77,26.56,1,17.25,3.36,26,14.38,24.59,31.83C153.93,196.76,144.47,211.11,126,218.67Zm104.79,3.21c-6.38,0-12.77,0-19.15,0-2.49,0-1.88-1.33-1.58-2.8q4.28-22,8.5-44.06a28.43,28.43,0,0,0,.51-5c0-4.92-1.79-7.17-6.66-8-7.63-1.32-15.35-.39-23-.69-2.33-.09-2,1.8-2.2,3q-4.89,24.67-9.59,49.41c-1.56,8.2-1.48,8.22-9.65,8.22-4,0-8.08-.09-12.12,0-2.16.08-2.59-.54-2.16-2.7,4.26-21.43,8.39-42.89,12.55-64.33,2.25-11.62,4.56-23.23,6.69-34.87.5-2.73,1.46-3.88,4.48-3.71,5.32.3,10.68.17,16,0,2.35,0,3.2.29,2.59,3-1.63,7.23-2.82,14.55-4.37,21.8-.58,2.65.1,3.41,2.78,3.28,4.29-.2,8.59,0,14.64,0,5.55.07,12.86,0,20,2.08,10.29,3,15.35,10.22,13.87,20.89-2.45,17.66-6.64,35-9.77,52.55C232.87,221.35,232.22,221.89,230.81,221.88Zm69-1.54c-6.79,1.47-13.71,1.42-19.06,1.54-5.72,0-9.89.13-14,0-2.47-.1-3.62.42-4.07,3.2-1.19,7.44-3,14.79-4.24,22.22-.39,2.23-1.28,2.69-3.29,2.65-5.47-.11-10.95-.24-16.42,0-3.36.18-3.73-1-3.15-3.92,4.09-20.53,8-41.09,12-61.63,2.42-12.38,4.9-24.76,7.24-37.15.36-1.93.8-3,3.09-2.92,16.15.3,32.31-.42,48.46.45a35.36,35.36,0,0,1,11.36,2.57c10.63,4.34,16.52,12.25,17.3,23.79C336.58,194.58,321.5,215.67,299.77,220.34ZM121,162c-7.85-1.66-15.82-.58-23.74-.94-2-.09-1.93,1.24-2.17,2.48-2.69,13.74-5.37,27.49-8.08,41.37,7.08,0,14,.42,20.8-.1,9.06-.69,16.53-4.45,20.33-13.41a40.75,40.75,0,0,0,3.41-16.67C131.46,167.29,128.39,163.54,121,162Z"/><path class="cls-2" d="M286.7,165.3c4.68,0,9.37,0,13.91,1.28s6,3.13,6.1,7.78a35.69,35.69,0,0,1-3.34,15.87c-2.87,6.3-8.25,9.21-14.79,10-4.5.54-9.08.46-13.61.75-2.19.14-3.14-.54-2.67-2.88,2-10,4.07-20.08,5.93-30.16.41-2.18,1.41-2.78,3.4-2.66C283.31,165.38,285,165.3,286.7,165.3Z"/></svg>