<svg id="Layer_1" data-name="Layer 1" xmlns="http://www.w3.org/2000/svg" viewBox="0 0 570.99 265.27"><defs><style>.cls-1{fill:#fff;}</style></defs><title>Artboard 3</title><path class="cls-1" d="M21.44,265.27a42.85,42.85,0,0,1-12.11-1.69A28.44,28.44,0,0,1,0,259.18L4.14,250a29.93,29.93,0,0,0,8,3.95,29.33,29.33,0,0,0,9.36,1.54,19.73,19.73,0,0,0,5.83-.71,6.78,6.78,0,0,0,3.27-2,4.49,4.49,0,0,0,1.06-2.93A4,4,0,0,0,30,246.5a13.83,13.83,0,0,0-4.36-2c-1.81-.52-3.8-1-6-1.5s-4.36-1.07-6.55-1.77a27.1,27.1,0,0,1-6-2.71,13.1,13.1,0,0,1-4.4-4.36,12.83,12.83,0,0,1-1.7-6.92A14.72,14.72,0,0,1,3.5,219,16.71,16.71,0,0,1,10.87,213a30.15,30.15,0,0,1,12.37-2.22A41.27,41.27,0,0,1,33,212a28.14,28.14,0,0,1,8.5,3.5l-3.76,9.25a31.61,31.61,0,0,0-7.37-3.12,27,27,0,0,0-7.22-1,17.17,17.17,0,0,0-5.8.83,6.87,6.87,0,0,0-3.23,2.14,5,5,0,0,0-1,3.05,3.89,3.89,0,0,0,1.66,3.27,12.9,12.9,0,0,0,4.36,2c1.8.51,3.8,1,6,1.51s4.36,1.08,6.54,1.73a25.28,25.28,0,0,1,6,2.63,13.29,13.29,0,0,1,4.4,4.36,12.72,12.72,0,0,1,1.7,6.85,14.19,14.19,0,0,1-2.49,8.12A17.23,17.23,0,0,1,33.88,263a29.81,29.81,0,0,1-12.44,2.26"/><path class="cls-1" d="M76.28,265.27a32.06,32.06,0,0,1-11.54-2,27.32,27.32,0,0,1-9.18-5.72,26.06,26.06,0,0,1-6-8.65,28.47,28.47,0,0,1,0-21.66,25.84,25.84,0,0,1,6.06-8.65,27.78,27.78,0,0,1,9.17-5.72,33.33,33.33,0,0,1,22.91,0,27.67,27.67,0,0,1,9.1,5.72,27.5,27.5,0,0,1,6,30.35,25.93,25.93,0,0,1-6,8.65,28.07,28.07,0,0,1-9.1,5.68,31.34,31.34,0,0,1-11.4,2m-.07-10.38a17.21,17.21,0,0,0,6.5-1.2,15.76,15.76,0,0,0,5.23-3.46,16,16,0,0,0,3.5-5.34,19.51,19.51,0,0,0,0-13.69A16,16,0,0,0,88,225.86a15,15,0,0,0-5.23-3.46,17.33,17.33,0,0,0-6.54-1.21,17,17,0,0,0-6.51,1.21A15.63,15.63,0,0,0,61,231.2a19.26,19.26,0,0,0,0,13.65,16,16,0,0,0,3.46,5.38,15.22,15.22,0,0,0,5.22,3.46,17.54,17.54,0,0,0,6.55,1.2"/><path class="cls-1" d="M125.12,264.37H112.93V211.72h39.79v9.77h-27.6Zm-.9-29h25.27v9.78H124.22Z"/><polygon class="cls-1" points="172.51 264.37 172.51 221.64 155.66 221.64 155.66 211.72 201.54 211.72 201.54 221.64 184.7 221.64 184.7 264.37 172.51 264.37"/><path class="cls-1" d="M225.05,265.27a42.9,42.9,0,0,1-12.11-1.69,28.53,28.53,0,0,1-9.33-4.4l4.14-9.18a30.23,30.23,0,0,0,8,3.95,29.38,29.38,0,0,0,9.36,1.54,19.73,19.73,0,0,0,5.83-.71,6.87,6.87,0,0,0,3.28-2,4.48,4.48,0,0,0,1.05-2.93,4,4,0,0,0-1.66-3.35,13.72,13.72,0,0,0-4.36-2c-1.8-.52-3.8-1-6-1.5s-4.36-1.07-6.54-1.77a27.18,27.18,0,0,1-6-2.71,13.2,13.2,0,0,1-4.4-4.36,12.83,12.83,0,0,1-1.69-6.92,14.71,14.71,0,0,1,2.44-8.24,16.76,16.76,0,0,1,7.37-5.94,30.18,30.18,0,0,1,12.37-2.22,41.27,41.27,0,0,1,9.78,1.17,28.14,28.14,0,0,1,8.5,3.5l-3.76,9.25a31.44,31.44,0,0,0-7.37-3.12,27,27,0,0,0-7.22-1,17.07,17.07,0,0,0-5.79.83,6.85,6.85,0,0,0-3.24,2.14,5,5,0,0,0-1,3.05,3.9,3.9,0,0,0,1.65,3.27,13,13,0,0,0,4.36,2q2.72.76,6,1.51t6.55,1.73a25.46,25.46,0,0,1,6,2.63,13.38,13.38,0,0,1,4.4,4.36,12.81,12.81,0,0,1,1.69,6.85,14.26,14.26,0,0,1-2.48,8.12A17.34,17.34,0,0,1,237.5,263a29.9,29.9,0,0,1-12.45,2.26"/><polygon class="cls-1" points="268.15 264.37 268.15 242.85 270.94 250.23 247.77 211.72 260.71 211.72 278.46 241.28 271.01 241.28 288.84 211.72 300.8 211.72 277.63 250.23 280.34 242.85 280.34 264.37 268.15 264.37"/><polygon class="cls-1" points="304.99 264.37 304.99 211.72 315.07 211.72 346.14 249.63 341.25 249.63 341.25 211.72 353.28 211.72 353.28 264.37 343.28 264.37 312.14 226.46 317.03 226.46 317.03 264.37 304.99 264.37"/><path class="cls-1" d="M389.84,265.27a31.69,31.69,0,0,1-11.32-2,26.28,26.28,0,0,1-15-14.33,28.85,28.85,0,0,1,0-21.81,26.21,26.21,0,0,1,6-8.66,27.25,27.25,0,0,1,9.06-5.67,33.4,33.4,0,0,1,23.74.37,24.06,24.06,0,0,1,9.28,7l-7.82,7.22a18.21,18.21,0,0,0-6-4.63,17,17,0,0,0-7.22-1.54,18.36,18.36,0,0,0-6.77,1.21,15.34,15.34,0,0,0-5.34,3.46,15.66,15.66,0,0,0-3.49,5.34,19.51,19.51,0,0,0,0,13.69,15.85,15.85,0,0,0,3.49,5.34,15.63,15.63,0,0,0,5.34,3.46,18.56,18.56,0,0,0,6.77,1.2,16.82,16.82,0,0,0,7.22-1.54,17.93,17.93,0,0,0,6-4.7l7.82,7.22a24.33,24.33,0,0,1-9.28,7,30.83,30.83,0,0,1-12.45,2.41"/><rect class="cls-1" x="441.06" y="211.72" width="12.18" height="52.65"/><polygon class="cls-1" points="464.41 264.37 464.41 211.72 474.49 211.72 505.55 249.63 500.66 249.63 500.66 211.72 512.7 211.72 512.7 264.37 502.69 264.37 471.56 226.46 476.44 226.46 476.44 264.37 464.41 264.37"/><path class="cls-1" d="M549.25,265.27a31.73,31.73,0,0,1-11.32-2,26.78,26.78,0,0,1-9.06-5.68,26.35,26.35,0,0,1-6-8.65,28.85,28.85,0,0,1,0-21.81,26.06,26.06,0,0,1,6-8.66,27.15,27.15,0,0,1,9.06-5.67,31.42,31.42,0,0,1,11.36-2,31.08,31.08,0,0,1,12.37,2.37,24.09,24.09,0,0,1,9.29,7l-7.82,7.22a18.31,18.31,0,0,0-6-4.63,17,17,0,0,0-7.22-1.54,18.32,18.32,0,0,0-6.77,1.21,15.16,15.16,0,0,0-5.34,3.46,15.83,15.83,0,0,0-3.5,5.34,19.51,19.51,0,0,0,0,13.69,16,16,0,0,0,3.5,5.34,15.44,15.44,0,0,0,5.34,3.46,18.52,18.52,0,0,0,6.77,1.2,16.85,16.85,0,0,0,7.22-1.54,18,18,0,0,0,6-4.7l7.82,7.22a24.37,24.37,0,0,1-9.29,7,30.76,30.76,0,0,1-12.45,2.41"/><path class="cls-1" d="M359.09,39.91,293.84,2.24a16.66,16.66,0,0,0-16.69,0L211.9,39.91a16.71,16.71,0,0,0-8.35,14.45v75.36a16.7,16.7,0,0,0,8.35,14.45l65.25,37.67a16.66,16.66,0,0,0,16.69,0l65.25-37.67a16.7,16.7,0,0,0,8.35-14.45V54.36A16.71,16.71,0,0,0,359.09,39.91ZM228.22,51.6l46.21-26.19a21.24,21.24,0,0,1,22.14,1L326.64,45l1.34.83a3.87,3.87,0,0,1-1.88,6.6l-1.41,0-11.57.23c-6.64.48-10,1.64-14-1.18l-6.62-4.68q-.69-.31-1.29-.54a17.57,17.57,0,1,0-17.37,30.24,18.54,18.54,0,0,0,1.82,1.21,3.75,3.75,0,0,1,2,3.37l-.67,14.47c-.16,3.37-4.91,5.21-8,3.1L226.5,67.78C220.71,63.84,221.64,55.09,228.22,51.6Zm114.55,80.88-46.21,26.18a21.22,21.22,0,0,1-22.14-1l-30.07-18.63-1.34-.83a3.9,3.9,0,0,1-1.21-2.92,3.86,3.86,0,0,1,3.09-3.67l1.41,0,11.57-.23c6.64-.48,10-1.64,14,1.18l6.62,4.68c.46.21.89.39,1.29.55a17.57,17.57,0,1,0,17.37-30.25,16.91,16.91,0,0,0-1.82-1.21,3.75,3.75,0,0,1-2-3.37l.67-14.47c.15-3.37,4.91-5.2,8-3.1l42.44,30.92C350.28,120.24,349.35,129,342.77,132.48Z"/></svg>