<svg id="Layer_1" data-name="Layer 1" xmlns="http://www.w3.org/2000/svg" viewBox="0 0 1080 453.42"><defs><style>.cls-1{fill:#231f20;}.cls-2{fill:#0c5adb;}.cls-3{fill:#a6e0fd;}</style></defs><path class="cls-1" d="M40.55,453.42a81.4,81.4,0,0,1-22.91-3.2Q6.69,447,0,441.89l7.82-17.35A57.48,57.48,0,0,0,23,432a55.75,55.75,0,0,0,17.71,2.91,36.86,36.86,0,0,0,11-1.35,12.85,12.85,0,0,0,6.19-3.77,8.46,8.46,0,0,0,2-5.55,7.51,7.51,0,0,0-3.13-6.33,25.76,25.76,0,0,0-8.25-3.84q-5.11-1.5-11.31-2.84t-12.37-3.35a51.62,51.62,0,0,1-11.31-5.12,25.17,25.17,0,0,1-8.33-8.25Q2,389.39,2,381.43a27.75,27.75,0,0,1,4.63-15.58q4.62-7,13.94-11.24T44,350.42a78.25,78.25,0,0,1,18.49,2.2,53.35,53.35,0,0,1,16.08,6.62l-7.11,17.5a60.52,60.52,0,0,0-13.94-5.91,51.37,51.37,0,0,0-13.66-1.92,32.17,32.17,0,0,0-11,1.57,12.87,12.87,0,0,0-6.11,4,9.36,9.36,0,0,0-1.85,5.76A7.36,7.36,0,0,0,28,386.48a24.53,24.53,0,0,0,8.25,3.77q5.11,1.42,11.31,2.85T60,396.37a47.8,47.8,0,0,1,11.31,5,25.33,25.33,0,0,1,8.32,8.25q3.2,5.11,3.2,12.95a26.93,26.93,0,0,1-4.7,15.36q-4.69,7-14,11.24T40.55,453.42Z"/><path class="cls-1" d="M144.28,453.42a60.52,60.52,0,0,1-21.83-3.84,51.57,51.57,0,0,1-17.36-10.82A49.13,49.13,0,0,1,93.71,422.4a53.71,53.71,0,0,1,0-41,48.85,48.85,0,0,1,11.45-16.36,52.55,52.55,0,0,1,17.36-10.81,63,63,0,0,1,43.32,0,51.88,51.88,0,0,1,17.21,10.81,52,52,0,0,1,11.45,57.4,49.17,49.17,0,0,1-11.45,16.37,52.53,52.53,0,0,1-17.21,10.74A59.09,59.09,0,0,1,144.28,453.42Zm-.14-19.64a32.45,32.45,0,0,0,12.31-2.27A29.65,29.65,0,0,0,173,414.86,36.83,36.83,0,0,0,173,389a30.5,30.5,0,0,0-6.54-10.1,28.48,28.48,0,0,0-9.89-6.54,33,33,0,0,0-12.38-2.28,32.37,32.37,0,0,0-12.3,2.28,29.24,29.24,0,0,0-9.89,6.54,29.93,29.93,0,0,0-6.62,10.1,36.78,36.78,0,0,0,0,25.82A30.23,30.23,0,0,0,121.88,425a28.51,28.51,0,0,0,9.88,6.55A33,33,0,0,0,144.14,433.78Z"/><path class="cls-1" d="M236.66,451.71h-23V352.12h75.26v18.5H236.66ZM235,396.94h47.8v18.49H235Z"/><path class="cls-1" d="M326.3,451.71V370.9H294.43V352.12h86.78V370.9H349.34v80.81Z"/><path class="cls-1" d="M425.67,453.42a81.33,81.33,0,0,1-22.9-3.2q-11-3.21-17.65-8.33L393,424.54A57.56,57.56,0,0,0,408.1,432a55.79,55.79,0,0,0,17.71,2.91,37,37,0,0,0,11-1.35A12.9,12.9,0,0,0,443,429.8a8.51,8.51,0,0,0,2-5.55,7.53,7.53,0,0,0-3.13-6.33,26,26,0,0,0-8.25-3.84q-5.13-1.5-11.31-2.84T410,407.89a51.62,51.62,0,0,1-11.31-5.12,25.14,25.14,0,0,1-8.32-8.25q-3.21-5.13-3.2-13.09a27.82,27.82,0,0,1,4.62-15.58q4.62-7,13.94-11.24t23.4-4.19a78.34,78.34,0,0,1,18.5,2.2,53.19,53.19,0,0,1,16.07,6.62l-7.11,17.5a60.34,60.34,0,0,0-13.94-5.91,51.32,51.32,0,0,0-13.66-1.92A32.07,32.07,0,0,0,418,370.48a12.86,12.86,0,0,0-6.12,4,9.42,9.42,0,0,0-1.85,5.76,7.36,7.36,0,0,0,3.13,6.19,24.71,24.71,0,0,0,8.25,3.77q5.13,1.42,11.31,2.85t12.38,3.27a47.62,47.62,0,0,1,11.31,5,25.23,25.23,0,0,1,8.32,8.25q3.21,5.11,3.2,12.95a26.92,26.92,0,0,1-4.69,15.36q-4.69,7-14,11.24T425.67,453.42Z"/><path class="cls-1" d="M507.2,451.71V411L512.46,425l-43.81-72.84h24.47L526.69,408H512.61l33.71-55.91h22.62L525.13,425,530.25,411v40.69Z"/><path class="cls-1" d="M576.88,451.71V352.12H596l58.75,71.71h-9.25V352.12h22.77v99.59H649.3L590.4,380h9.24v71.7Z"/><path class="cls-1" d="M737.36,453.42A59.67,59.67,0,0,1,716,449.65a49.7,49.7,0,0,1-28.46-27.1,54.57,54.57,0,0,1,0-41.26,49.4,49.4,0,0,1,11.39-16.36A51,51,0,0,1,716,354.19a63.22,63.22,0,0,1,44.88.71,45.56,45.56,0,0,1,17.57,13.16l-14.79,13.66A34.64,34.64,0,0,0,752.3,373a31.89,31.89,0,0,0-13.66-2.92,34.91,34.91,0,0,0-12.81,2.28,28.87,28.87,0,0,0-10.1,6.54,29.91,29.91,0,0,0-6.61,10.1,36.83,36.83,0,0,0,0,25.89,29.81,29.81,0,0,0,6.61,10.1,29,29,0,0,0,10.1,6.55,34.91,34.91,0,0,0,12.81,2.27,32,32,0,0,0,13.66-2.91A33.94,33.94,0,0,0,763.68,422l14.79,13.65a46.26,46.26,0,0,1-17.57,13.24A58.49,58.49,0,0,1,737.36,453.42Z"/><path class="cls-1" d="M834.24,451.71V352.12h23v99.59Z"/><path class="cls-1" d="M878.41,451.71V352.12h19.06l58.76,71.71H947V352.12h22.76v99.59H950.82L891.92,380h9.25v71.7Z"/><path class="cls-1" d="M1038.89,453.42a59.73,59.73,0,0,1-21.42-3.77,50.38,50.38,0,0,1-17.14-10.74A49.78,49.78,0,0,1,989,422.55a54.57,54.57,0,0,1,0-41.26,49.38,49.38,0,0,1,11.38-16.36,51.15,51.15,0,0,1,17.15-10.74,63.22,63.22,0,0,1,44.88.71A45.56,45.56,0,0,1,1080,368.06l-14.8,13.66a34.43,34.43,0,0,0-11.38-8.75,31.82,31.82,0,0,0-13.65-2.92,34.91,34.91,0,0,0-12.81,2.28,28.87,28.87,0,0,0-10.1,6.54,29.91,29.91,0,0,0-6.61,10.1,36.83,36.83,0,0,0,0,25.89,29.81,29.81,0,0,0,6.61,10.1,29,29,0,0,0,10.1,6.55,34.91,34.91,0,0,0,12.81,2.27,32,32,0,0,0,13.65-2.91A33.75,33.75,0,0,0,1065.2,422l14.8,13.65a46.26,46.26,0,0,1-17.57,13.24A58.49,58.49,0,0,1,1038.89,453.42Z"/><path class="cls-2" d="M670.88,71.79,552.19,3.27a24.36,24.36,0,0,0-24.38,0L409.12,71.79a24.38,24.38,0,0,0-12.19,21.12V230a24.38,24.38,0,0,0,12.19,21.12l118.69,68.53a24.4,24.4,0,0,0,24.38,0l118.69-68.53A24.38,24.38,0,0,0,683.07,230v-137A24.38,24.38,0,0,0,670.88,71.79Z"/><path class="cls-3" d="M640,232.05l-80.68,45.71c-12.65,6.71-27.68,6.05-38.65-1.72l-52.51-32.52-2.34-1.45a6.75,6.75,0,0,1,3.28-11.52l2.46-.05,20.2-.41c11.59-.84,17.55-2.87,24.51,2.06l11.55,8.17c.8.37,1.55.68,2.26,1a30.67,30.67,0,1,0,30.31-52.81,28.94,28.94,0,0,0-3.16-2.11,6.54,6.54,0,0,1-3.46-5.88l1.17-25.27c.27-5.87,8.56-9.08,14-5.41l74.1,54C653.11,210.67,651.5,225.94,640,232.05Z"/><path class="cls-3" d="M440,90.82l80.68-45.71c12.65-6.71,27.68-6,38.65,1.72l52.51,32.52,2.34,1.45a6.75,6.75,0,0,1-3.28,11.52l-2.46.05-20.2.41c-11.59.84-17.55,2.87-24.51-2l-11.55-8.18c-.8-.37-1.55-.68-2.26-1a30.67,30.67,0,1,0-30.31,52.81,28.94,28.94,0,0,0,3.16,2.11,6.54,6.54,0,0,1,3.46,5.89l-1.17,25.26c-.27,5.88-8.56,9.09-14,5.41l-74.1-54C426.89,112.21,428.5,96.93,440,90.82Z"/></svg>