<svg id="Layer_1" data-name="Layer 1" xmlns="http://www.w3.org/2000/svg" viewBox="0 0 41.06 45.97"><defs><style>.cls-1{fill:#0c5adb;}.cls-2{fill:#fff;}</style></defs><path class="cls-1" d="M38.72,9.78,22.88.63a4.68,4.68,0,0,0-4.69,0L2.34,9.78A4.67,4.67,0,0,0,0,13.84V32.13a4.68,4.68,0,0,0,2.34,4.06l15.85,9.15a4.68,4.68,0,0,0,4.69,0l15.84-9.15a4.68,4.68,0,0,0,2.34-4.06V13.84A4.67,4.67,0,0,0,38.72,9.78Z"/><path class="cls-2" d="M34.88,33.12,23.3,39.68a5.32,5.32,0,0,1-5.54-.25l-7.54-4.67-.33-.21a1,1,0,0,1-.31-.73,1,1,0,0,1,.78-.92h.35l2.9,0c1.66-.12,2.52-.42,3.52.29l1.65,1.17.33.14a4.34,4.34,0,0,0,2.5.87,4.4,4.4,0,0,0,1.85-8.45,3,3,0,0,0-.46-.3.94.94,0,0,1-.49-.85l.17-3.62a1.28,1.28,0,0,1,2-.78l10.63,7.75A2.37,2.37,0,0,1,34.88,33.12Z"/><path class="cls-2" d="M6.18,12.85,17.76,6.29a5.32,5.32,0,0,1,5.55.25l7.53,4.66.34.21a1,1,0,0,1,.3.73,1,1,0,0,1-.77.92h-.36l-2.9.06c-1.66.12-2.51.41-3.51-.29l-1.66-1.18L22,11.53a4.4,4.4,0,1,0-4.35,7.57,5.09,5.09,0,0,0,.45.31.94.94,0,0,1,.5.84l-.17,3.63a1.29,1.29,0,0,1-2,.77L5.75,16.91A2.37,2.37,0,0,1,6.18,12.85Z"/></svg>