<svg id="Layer_1" data-name="Layer 1" xmlns="http://www.w3.org/2000/svg" viewBox="0 0 5.13 5.79"><defs><style>.cls-1{fill:#231f20;}.cls-2{fill:#fff;}</style></defs><path class="cls-1" d="M4.91,1.29,2.79.06a.43.43,0,0,0-.44,0L.22,1.29A.43.43,0,0,0,0,1.67V4.13a.41.41,0,0,0,.22.37L2.35,5.73a.43.43,0,0,0,.44,0L4.91,4.5a.41.41,0,0,0,.22-.37V1.67A.43.43,0,0,0,4.91,1.29Z"/><path class="cls-2" d="M4.36,4.16,2.91,5a.66.66,0,0,1-.69,0l-.94-.58,0,0a.1.1,0,0,1,0-.09.11.11,0,0,1,.09-.11H1.7c.21,0,.32,0,.44,0l.21.15,0,0a.64.64,0,0,0,.31.11.55.55,0,0,0,.57-.54.56.56,0,0,0-.34-.52l-.05,0a.1.1,0,0,1-.07-.1l0-.46a.16.16,0,0,1,.25-.09l1.33,1A.29.29,0,0,1,4.36,4.16Z"/><path class="cls-2" d="M.77,1.63,2.22.81a.66.66,0,0,1,.69,0l.95.58,0,0a.1.1,0,0,1,0,.09.12.12,0,0,1-.09.12H3.43c-.21,0-.31.06-.44,0l-.21-.15,0,0a.61.61,0,0,0-.31-.11.55.55,0,0,0-.56.54.54.54,0,0,0,.33.52l.06,0a.11.11,0,0,1,.06.1L2.3,3a.16.16,0,0,1-.25.09l-1.33-1A.3.3,0,0,1,.77,1.63Z"/></svg>